<svg class="gmap-preview-svg" viewBox="0 0 800 400" preserveAspectRatio="xMidYMid slice" role="img" aria-label="Map preview: central Lima with a rectangle, a polygon and a circle" xmlns="http://www.w3.org/2000/svg">
<!-- Static preview of the Google map (zoom 14). Made with Natural Earth, public domain: naturalearthdata.com -->
<rect class="gp-water" width="800" height="400"/>
<path class="gp-land" d="M-10,-10L810,-10L810,410L-10,410Z"/>
<path class="gp-urban" d="M-10,-10L810,-10L810,410L-10,410Z"/>
<path class="gp-grid" d="M0.9,410L0.9,-10M117.4,410L117.4,-10M233.9,410L233.9,-10M350.4,410L350.4,-10M466.9,410L466.9,-10M583.4,410L583.4,-10M699.9,410L699.9,-10M-10,316.5L810,316.5M-10,197.3L810,197.3M-10,78.2L810,78.2M350.4,410L350.4,-10"/>
<rect class="gp-shape gp-shape-blue" x="423.3" y="83" width="142.1" height="52.5"/>
<path class="gp-shape gp-shape-green" d="M306.8,202.1L234.6,200.3L414.7,317L448.9,254.6Z"/>
<path class="gp-shape gp-shape-purple" d="M426.6,203.4L426.6,202.1L426.6,200.8L426.8,199.4L426.9,198.1L427.1,196.9L427.4,195.6L427.7,194.3L428,193L428.4,191.8L428.8,190.5L429.3,189.3L429.8,188.1L430.3,186.9L430.9,185.8L431.6,184.6L432.3,183.5L433,182.4L433.7,181.3L434.5,180.3L435.3,179.3L436.2,178.3L437.1,177.3L438,176.4L439,175.5L439.9,174.6L441,173.8L442,173L443.1,172.3L444.2,171.6L445.3,170.9L446.4,170.3L447.6,169.7L448.8,169.1L450,168.6L451.2,168.1L452.5,167.7L453.7,167.3L455,167L456.3,166.7L457.5,166.4L458.8,166.2L460.1,166.1L461.4,166L462.7,165.9L464,165.9L465.4,165.9L466.7,166L468,166.1L469.3,166.2L470.6,166.4L471.8,166.7L473.1,167L474.4,167.3L475.6,167.7L476.9,168.1L478.1,168.6L479.3,169.1L480.5,169.7L481.7,170.3L482.8,170.9L483.9,171.6L485,172.3L486.1,173L487.1,173.8L488.2,174.6L489.1,175.5L490.1,176.4L491,177.3L491.9,178.3L492.8,179.3L493.6,180.3L494.4,181.3L495.1,182.4L495.8,183.5L496.5,184.6L497.2,185.8L497.8,186.9L498.3,188.1L498.8,189.3L499.3,190.5L499.7,191.8L500.1,193L500.4,194.3L500.7,195.6L501,196.9L501.2,198.1L501.3,199.4L501.5,200.7L501.5,202.1L501.5,203.4L501.5,204.7L501.5,206L501.3,207.3L501.2,208.6L501,209.9L500.7,211.2L500.4,212.4L500.1,213.7L499.7,215L499.3,216.2L498.8,217.4L498.3,218.6L497.8,219.8L497.2,221L496.5,222.1L495.9,223.2L495.1,224.3L494.4,225.4L493.6,226.4L492.8,227.5L491.9,228.5L491,229.4L490.1,230.3L489.1,231.2L488.2,232.1L487.1,232.9L486.1,233.7L485,234.5L483.9,235.2L482.8,235.8L481.7,236.5L480.5,237.1L479.3,237.6L478.1,238.1L476.9,238.6L475.6,239L474.4,239.4L473.1,239.7L471.8,240L470.6,240.3L469.3,240.5L468,240.7L466.7,240.8L465.4,240.8L464.1,240.9L462.7,240.8L461.4,240.8L460.1,240.7L458.8,240.5L457.5,240.3L456.3,240L455,239.7L453.7,239.4L452.5,239L451.2,238.6L450,238.1L448.8,237.6L447.6,237.1L446.4,236.5L445.3,235.8L444.2,235.2L443.1,234.5L442,233.7L441,232.9L439.9,232.1L439,231.2L438,230.3L437.1,229.4L436.2,228.5L435.3,227.5L434.5,226.5L433.7,225.4L433,224.3L432.3,223.2L431.6,222.1L430.9,221L430.3,219.8L429.8,218.6L429.3,217.4L428.8,216.2L428.4,215L428,213.7L427.7,212.4L427.4,211.2L427.1,209.9L426.9,208.6L426.8,207.3L426.6,206L426.6,204.7Z"/>
<g transform="translate(350.4 273.6)"><circle class="gp-place" r="3"/><text class="gp-place-label" x="-7" y="4" text-anchor="end">Plaza Mayor</text></g>
</svg>
